<?xml version="1.0" standalone="no"?><!DOCTYPE svg PUBLIC "-//W3C//DTD SVG 1.1//EN" "http://www.w3.org/Graphics/SVG/1.1/DTD/svg11.dtd"><svg xmlns:xlink="http://www.w3.org/1999/xlink" version="1.1" class="highcharts-root" style="font-family:&quot;Lucida Grande&quot;, &quot;Lucida Sans Unicode&quot;, Arial, Helvetica, sans-serif;font-size:12px;" xmlns="http://www.w3.org/2000/svg" width="600" height="400" viewBox="0 0 600 400" aria-label="Interactive chart" aria-hidden="false"><desc aria-hidden="true">Created with Highcharts 8.2.2</desc><defs aria-hidden="true"><clipPath id="highcharts-itsr97j-25-"><rect x="0" y="0" width="580" height="332" fill="none"></rect></clipPath></defs><rect fill="#ffffff" class="highcharts-background" x="0" y="0" width="600" height="400" rx="0" ry="0" aria-hidden="true"></rect><rect fill="none" class="highcharts-plot-background" x="10" y="53" width="580" height="332" aria-hidden="true"></rect><rect fill="none" class="highcharts-plot-border" data-z-index="1" x="10" y="53" width="580" height="332" aria-hidden="true"></rect><g class="highcharts-series-group" data-z-index="3" aria-hidden="false"><g class="highcharts-series highcharts-series-0 highcharts-sankey-series" data-z-index="0.1" opacity="1" transform="translate(10,53) scale(1 1)" clip-path="url(#highcharts-itsr97j-25-)" aria-hidden="false" aria-label=""><path fill="rgb(124,181,236)" fill-opacity="0.5" d="M 20 5 C 56.96 5 75.03999999999999 0 112 0 L 112 67.78947368421052 L 112 135.57894736842104 C 75.03999999999999 135.57894736842104 56.96 140.57894736842104 20 140.57894736842104 Z" class="highcharts-link highcharts-point highcharts-color-0" tabindex="-1" role="img" aria-label="1. AB Visit to (SAB), 16." style="outline: 0px;"></path><path fill="rgb(124,181,236)" fill-opacity="0.5" d="M 20 140.57894736842104 C 56.96 140.57894736842104 75.03999999999999 144.57894736842107 112 144.57894736842107 L 112 237.78947368421052 L 112 331 C 75.03999999999999 331 56.96 327 20 327 Z" class="highcharts-link highcharts-point highcharts-color-1" tabindex="-1" role="img" aria-label="2. AB Visit to (MAB), 22." style="outline: 0px;"></path><path fill="rgb(67,67,72)" fill-opacity="0.5" d="M 132 0 C 168.96 0 187.04 0 224 0 L 224 55.07894736842105 L 224 110.1578947368421 C 187.04 110.1578947368421 168.96 110.1578947368421 132 110.1578947368421 Z" class="highcharts-link highcharts-point highcharts-color-2" tabindex="-1" role="img" aria-label="3. (SAB) to Termination, 13." style="outline: 0px;"></path><path fill="rgb(67,67,72)" fill-opacity="0.5" d="M 132 110.1578947368421 C 168.96 110.1578947368421 187.04 255 224 255 L 224 267.7105263157895 L 224 280.42105263157896 C 187.04 280.42105263157896 168.96 135.57894736842104 132 135.57894736842104 Z" class="highcharts-link highcharts-point highcharts-color-3" tabindex="-1" role="img" aria-label="4. (SAB) to Still Pregnant at End of Visit, 3." style="outline: 0px;"></path><path fill="rgb(247,163,92)" fill-opacity="0.5" d="M 244 0 C 280.96 0 299.04 0 336 0 L 336 55.07894736842105 L 336 110.1578947368421 C 299.04 110.1578947368421 280.96 110.1578947368421 244 110.1578947368421 Z" class="highcharts-link highcharts-point highcharts-color-4" tabindex="-1" role="img" aria-label="5. Termination to Abortion, 13." style="outline: 0px;"></path><path fill="rgb(128,133,233)" fill-opacity="0.5" d="M 244 255 C 280.96 255 299.04 255 336 255 L 336 267.7105263157895 L 336 280.42105263157896 C 299.04 280.42105263157896 280.96 280.42105263157896 244 280.42105263157896 Z" class="highcharts-link highcharts-point highcharts-color-5" tabindex="-1" role="img" aria-label="6. Still Pregnant at End of Visit to Keeps Pregnancy, 3." style="outline: 0px;"></path><path fill="rgb(228,211,84)" fill-opacity="0.5" d="M 356 255 C 392.96 255 411.04 118 448 118 L 448 126.47368421052632 L 448 134.94736842105263 C 411.04 134.94736842105263 392.96 271.9473684210526 356 271.9473684210526 Z" class="highcharts-link highcharts-point highcharts-color-6" tabindex="-1" role="img" aria-label="7. Keeps Pregnancy to Full term pregnancy, 2." style="outline: 0px;"></path><path fill="rgb(228,211,84)" fill-opacity="0.5" d="M 356 271.9473684210526 C 392.96 271.9473684210526 411.04 179 448 179 L 448 183.23684210526315 L 448 187.4736842105263 C 411.04 187.4736842105263 392.96 280.4210526315789 356 280.4210526315789 Z" class="highcharts-link highcharts-point highcharts-color-7" tabindex="-1" role="img" aria-label="8. Keeps Pregnancy to Comes back for 2nd AB, 1." style="outline: 0px;"></path><path fill="rgb(244,91,91)" fill-opacity="0.5" d="M 468 179 C 504.96 179 523.04 144 560 144 L 560 148.23684210526315 L 560 152.4736842105263 C 523.04 152.4736842105263 504.96 187.4736842105263 468 187.4736842105263 Z" class="highcharts-link highcharts-point highcharts-color-8" tabindex="-1" role="img" aria-label="9. Comes back for 2nd AB to Aborts, 1." style="outline: 0px;"></path><path fill="rgb(244,91,91)" fill-opacity="0.5" d="M 468 187.4736842105263 C 504.96 187.4736842105263 523.04 171 560 171 L 560 175.23684210526315 L 560 179.4736842105263 C 523.04 179.4736842105263 504.96 195.9473684210526 468 195.9473684210526 Z" class="highcharts-link highcharts-point highcharts-color-9" tabindex="-1" role="img" aria-label="10. Comes back for 2nd AB to Full Term Pregnancy, 1." style="outline: 0px;"></path><path fill="rgb(144,237,125)" fill-opacity="0.5" d="M 132 145 C 168.96 145 187.04 110.1578947368421 224 110.1578947368421 L 224 177.9473684210526 L 224 245.73684210526312 C 187.04 245.73684210526312 168.96 280.57894736842104 132 280.57894736842104 Z" class="highcharts-link highcharts-point highcharts-color-0" tabindex="-1" role="img" aria-label="11. (MAB) to Termination, 16." style="outline: 0px;"></path><path fill="rgb(144,237,125)" fill-opacity="0.5" d="M 132 280.1578947368421 C 168.96 280.1578947368421 187.04 280.1578947368421 224 280.1578947368421 L 224 305.57894736842104 L 224 331 C 187.04 331 168.96 331 132 331 Z" class="highcharts-link highcharts-point highcharts-color-1" tabindex="-1" role="img" aria-label="12. (MAB) to Still Pregnant at End of Visit, 6." style="outline: 0px;"></path><path fill="rgb(247,163,92)" fill-opacity="0.5" d="M 244 110.1578947368421 C 280.96 110.1578947368421 299.04 110.1578947368421 336 110.1578947368421 L 336 177.9473684210526 L 336 245.73684210526312 C 299.04 245.73684210526312 280.96 245.73684210526312 244 245.73684210526312 Z" class="highcharts-link highcharts-point highcharts-color-2" tabindex="-1" role="img" aria-label="13. Termination to Abortion, 16." style="outline: 0px;"></path><path fill="rgb(128,133,233)" fill-opacity="0.5" d="M 244 280.1578947368421 C 280.96 280.1578947368421 299.04 280.1578947368421 336 280.1578947368421 L 336 305.57894736842104 L 336 331 C 299.04 331 280.96 331 244 331 Z" class="highcharts-link highcharts-point highcharts-color-3" tabindex="-1" role="img" aria-label="14. Still Pregnant at End of Visit to Keeps Pregnancy, 6." style="outline: 0px;"></path><path fill="rgb(228,211,84)" fill-opacity="0.5" d="M 356 280.42105263157896 C 392.96 280.42105263157896 411.04 134.94736842105263 448 134.94736842105263 L 448 151.89473684210526 L 448 168.8421052631579 C 411.04 168.8421052631579 392.96 314.3157894736842 356 314.3157894736842 Z" class="highcharts-link highcharts-point highcharts-color-4" tabindex="-1" role="img" aria-label="15. Keeps Pregnancy to Full term pregnancy, 4." style="outline: 0px;"></path><path fill="rgb(228,211,84)" fill-opacity="0.5" d="M 356 314.0526315789474 C 392.96 314.0526315789474 411.04 187.4736842105263 448 187.4736842105263 L 448 195.9473684210526 L 448 204.42105263157893 C 411.04 204.42105263157893 392.96 331 356 331 Z" class="highcharts-link highcharts-point highcharts-color-5" tabindex="-1" role="img" aria-label="16. Keeps Pregnancy to Comes back for 2nd AB, 2." style="outline: 0px;"></path><path fill="rgb(244,91,91)" fill-opacity="0.5" d="M 468 195.94736842105263 C 504.96 195.94736842105263 523.04 152.4736842105263 560 152.4736842105263 L 560 156.71052631578945 L 560 160.9473684210526 C 523.04 160.9473684210526 504.96 204.42105263157896 468 204.42105263157896 Z" class="highcharts-link highcharts-point highcharts-color-6" tabindex="-1" role="img" aria-label="17. Comes back for 2nd AB to Aborts, 1." style="outline: 0px;"></path><path fill="rgb(244,91,91)" fill-opacity="0.5" d="M 468 204.42105263157896 C 504.96 204.42105263157896 523.04 179.4736842105263 560 179.4736842105263 L 560 183.71052631578945 L 560 187.9473684210526 C 523.04 187.9473684210526 504.96 212.89473684210526 468 212.89473684210526 Z" class="highcharts-link highcharts-point highcharts-color-7" tabindex="-1" role="img" aria-label="18. Comes back for 2nd AB to Full Term Pregnancy, 1." style="outline: 0px;"></path><rect x="0" y="5" width="20" height="322" display="" fill="#7cb5ec" class="highcharts-node highcharts-point highcharts-color-0 highcharts-node"></rect><rect x="112" y="0" width="20" height="136" display="" fill="#434348" class="highcharts-node highcharts-point highcharts-color-1 highcharts-node"></rect><rect x="112" y="145" width="20" height="186" display="" fill="#90ed7d" class="highcharts-node highcharts-point highcharts-color-2 highcharts-node"></rect><rect x="224" y="0" width="20" height="246" display="" fill="#f7a35c" class="highcharts-node highcharts-point highcharts-color-3 highcharts-node"></rect><rect x="224" y="255" width="20" height="76" display="" fill="#8085e9" class="highcharts-node highcharts-point highcharts-color-4 highcharts-node"></rect><rect x="336" y="0" width="20" height="246" display="" fill="#f15c80" class="highcharts-node highcharts-point highcharts-color-5 highcharts-node"></rect><rect x="336" y="255" width="20" height="76" display="" fill="#e4d354" class="highcharts-node highcharts-point highcharts-color-6 highcharts-node"></rect><rect x="448" y="118" width="20" height="51" display="" fill="#2b908f" class="highcharts-node highcharts-point highcharts-color-7 highcharts-node"></rect><rect x="448" y="179" width="20" height="34" display="" fill="#f45b5b" class="highcharts-node highcharts-point highcharts-color-8 highcharts-node"></rect><rect x="560" y="144" width="20" height="17" display="" fill="#91e8e1" class="highcharts-node highcharts-point highcharts-color-9 highcharts-node"></rect><rect x="560" y="171" width="20" height="17" display="" fill="#7cb5ec" class="highcharts-node highcharts-point highcharts-color-0 highcharts-node"></rect></g><g class="highcharts-markers highcharts-series-0 highcharts-sankey-series" data-z-index="0.1" opacity="1" transform="translate(10,53) scale(1 1)" clip-path="none" aria-hidden="true"></g></g><text x="300" text-anchor="middle" class="highcharts-title" data-z-index="4" style="color:#333333;font-size:18px;fill:#333333;" y="24" aria-hidden="true"><tspan>Abortion vs. Continued Pregnancy Sankey Diagram</tspan></text><text x="300" text-anchor="middle" class="highcharts-subtitle" data-z-index="4" style="color:#666666;fill:#666666;" y="52" aria-hidden="true"></text><text x="10" text-anchor="start" class="highcharts-caption" data-z-index="4" style="color:#666666;fill:#666666;" y="397" aria-hidden="true"></text><g class="highcharts-data-labels highcharts-series-0 highcharts-sankey-series" data-z-index="6" opacity="1" transform="translate(10,53) scale(1 1)" aria-hidden="true"><g class="highcharts-label highcharts-data-label highcharts-data-label-color-0" data-z-index="1" transform="translate(0,154)"><rect fill="none" class="highcharts-label-box highcharts-data-label-box" x="0" y="0" width="55" height="24" rx="0" ry="0"></rect><text x="5" data-z-index="1" y="16" style="color:#000000;font-size:11px;font-weight:bold;fill:#000000;"><tspan x="5" y="16" class="highcharts-text-outline" fill="#FFFFFF" stroke="#FFFFFF" stroke-width="2px" stroke-linejoin="round" style="">AB Visit</tspan><tspan x="5" y="16">AB Visit</tspan></text></g><g class="highcharts-label highcharts-data-label highcharts-data-label-color-1" data-z-index="1" transform="translate(103,56)"><rect fill="none" class="highcharts-label-box highcharts-data-label-box" x="0" y="0" width="39" height="24" rx="0" ry="0"></rect><text x="5" data-z-index="1" y="16" style="color:#FFFFFF;font-size:11px;font-weight:bold;fill:#FFFFFF;"><tspan x="5" y="16" class="highcharts-text-outline" fill="#000000" stroke="#000000" stroke-width="2px" stroke-linejoin="round" style="">(SAB)</tspan><tspan x="5" y="16">(SAB)</tspan></text></g><g class="highcharts-label highcharts-data-label highcharts-data-label-color-2" data-z-index="1" transform="translate(101,226)"><rect fill="none" class="highcharts-label-box highcharts-data-label-box" x="0" y="0" width="42" height="24" rx="0" ry="0"></rect><text x="5" data-z-index="1" y="16" style="color:#000000;font-size:11px;font-weight:bold;fill:#000000;"><tspan x="5" y="16" class="highcharts-text-outline" fill="#FFFFFF" stroke="#FFFFFF" stroke-width="2px" stroke-linejoin="round" style="">(MAB)</tspan><tspan x="5" y="16">(MAB)</tspan></text></g><g class="highcharts-label highcharts-data-label highcharts-data-label-color-3" data-z-index="1" transform="translate(194,111)"><rect fill="none" class="highcharts-label-box highcharts-data-label-box" x="0" y="0" width="79" height="24" rx="0" ry="0"></rect><text x="5" data-z-index="1" y="16" style="color:#000000;font-size:11px;font-weight:bold;fill:#000000;"><tspan x="5" y="16" class="highcharts-text-outline" fill="#FFFFFF" stroke="#FFFFFF" stroke-width="2px" stroke-linejoin="round" style="">Termination</tspan><tspan x="5" y="16">Termination</tspan></text></g><g class="highcharts-label highcharts-data-label highcharts-data-label-color-4" data-z-index="1" transform="translate(152,281)"><rect fill="none" class="highcharts-label-box highcharts-data-label-box" x="0" y="0" width="165" height="24" rx="0" ry="0"></rect><text x="5" data-z-index="1" y="16" style="color:#FFFFFF;font-size:11px;font-weight:bold;fill:#FFFFFF;"><tspan x="5" y="16" class="highcharts-text-outline" fill="#000000" stroke="#000000" stroke-width="2px" stroke-linejoin="round" style="">Still Pregnant at End of Visit</tspan><tspan x="5" y="16">Still Pregnant at End of Visit</tspan></text></g><g class="highcharts-label highcharts-data-label highcharts-data-label-color-5" data-z-index="1" transform="translate(316,111)"><rect fill="none" class="highcharts-label-box highcharts-data-label-box" x="0" y="0" width="60" height="24" rx="0" ry="0"></rect><text x="5" data-z-index="1" y="16" style="color:#FFFFFF;font-size:11px;font-weight:bold;fill:#FFFFFF;"><tspan x="5" y="16" class="highcharts-text-outline" fill="#000000" stroke="#000000" stroke-width="2px" stroke-linejoin="round" style="">Abortion</tspan><tspan x="5" y="16">Abortion</tspan></text></g><g class="highcharts-label highcharts-data-label highcharts-data-label-color-6 highcharts-data-label-hidden" data-z-index="1" transform="translate(294,281)" opacity="0" style="pointer-events:none;"><rect fill="none" class="highcharts-label-box highcharts-data-label-box" x="0" y="0" width="105" height="24" rx="0" ry="0"></rect><text x="5" data-z-index="1" y="16" style="color:#000000;font-size:11px;font-weight:bold;fill:#000000;"><tspan x="5" y="16" class="highcharts-text-outline" fill="#FFFFFF" stroke="#FFFFFF" stroke-width="2px" stroke-linejoin="round" style="">Keeps Pregnancy</tspan><tspan x="5" y="16">Keeps Pregnancy</tspan></text></g><g class="highcharts-label highcharts-data-label highcharts-data-label-color-7" data-z-index="1" transform="translate(397,132)"><rect fill="none" class="highcharts-label-box highcharts-data-label-box" x="0" y="0" width="122" height="24" rx="0" ry="0"></rect><text x="5" data-z-index="1" y="16" style="color:#FFFFFF;font-size:11px;font-weight:bold;fill:#FFFFFF;"><tspan x="5" y="16" class="highcharts-text-outline" fill="#000000" stroke="#000000" stroke-width="2px" stroke-linejoin="round" style="">Full term pregnancy</tspan><tspan x="5" y="16">Full term pregnancy</tspan></text></g><g class="highcharts-label highcharts-data-label highcharts-data-label-color-8" data-z-index="1" transform="translate(388,184)"><rect fill="none" class="highcharts-label-box highcharts-data-label-box" x="0" y="0" width="140" height="24" rx="0" ry="0"></rect><text x="5" data-z-index="1" y="16" style="color:#FFFFFF;font-size:11px;font-weight:bold;fill:#FFFFFF;"><tspan x="5" y="16" class="highcharts-text-outline" fill="#000000" stroke="#000000" stroke-width="2px" stroke-linejoin="round" style="">Comes back for 2nd AB</tspan><tspan x="5" y="16">Comes back for 2nd AB</tspan></text></g><g class="highcharts-label highcharts-data-label highcharts-data-label-color-9" data-z-index="1" transform="translate(531,141)"><rect fill="none" class="highcharts-label-box highcharts-data-label-box" x="0" y="0" width="49" height="24" rx="0" ry="0"></rect><text x="5" data-z-index="1" y="16" style="color:#000000;font-size:11px;font-weight:bold;fill:#000000;"><tspan x="5" y="16" class="highcharts-text-outline" fill="#FFFFFF" stroke="#FFFFFF" stroke-width="2px" stroke-linejoin="round" style="">Aborts</tspan><tspan x="5" y="16">Aborts</tspan></text></g><g class="highcharts-label highcharts-data-label highcharts-data-label-color-0 highcharts-data-label-hidden" data-z-index="1" transform="translate(456,168)" opacity="0" style="pointer-events:none;"><rect fill="none" class="highcharts-label-box highcharts-data-label-box" x="0" y="0" width="124" height="24" rx="0" ry="0"></rect><text x="5" data-z-index="1" y="16" style="color:#000000;font-size:11px;font-weight:bold;fill:#000000;"><tspan x="5" y="16" class="highcharts-text-outline" fill="#FFFFFF" stroke="#FFFFFF" stroke-width="2px" stroke-linejoin="round" style="">Full Term Pregnancy</tspan><tspan x="5" y="16">Full Term Pregnancy</tspan></text></g></g><g class="highcharts-legend" data-z-index="7" aria-hidden="true"><rect fill="none" class="highcharts-legend-box" rx="0" ry="0" x="0" y="0" width="8" height="8" visibility="hidden"></rect><g data-z-index="1"><g></g></g></g><text x="590" class="highcharts-credits" text-anchor="end" data-z-index="8" style="cursor:pointer;color:#999999;font-size:9px;fill:#999999;" y="395" aria-label="Chart credits: Highcharts.com" aria-hidden="false">Highcharts.com</text></svg>